<?xml version="1.0" encoding="utf-8"?><!DOCTYPE svg PUBLIC "-//W3C//DTD SVG 1.1//EN" "http://www.w3.org/Graphics/SVG/1.1/DTD/svg11.dtd"><svg version="1.1" baseProfile="full" xmlns="http://www.w3.org/2000/svg" xmlns:xlink="http://www.w3.org/1999/xlink" xmlns:ev="http://www.w3.org/2001/xml-events"   height="57px"   width="44px" ><path fill="#6F6F6F" d="M34.151,47.005 C34.151,47.005 22.606,55.801 22.606,55.801 C22.427,55.938 22.213,56.006 22,56.006 C21.787,56.006 21.573,55.938 21.394,55.801 C21.394,55.801 9.84899999999999,47.005 9.84899999999999,47.005 C3.68200000000002,42.308 0,34.874 0,27.121 C0,27.121 0,9.00800000000001 0,9.00800000000001 C0,8.45599999999999 0.44799999999998,8.00800000000001 1,8.00800000000001 C14.391,8.00800000000001 21.18,0.42699999999999 21.247,0.34999999999999 C21.437,0.13399999999999 21.711,0.00999999999999 21.998,0.00999999999999 C21.999,0.00999999999999 22,0.00999999999999 22,0.00999999999999 C22.288,0.00999999999999 22.562,0.13300000000001 22.752,0.34899999999999 C22.819,0.42500000000001 29.661,8.00800000000001 43,8.00800000000001 C43.552,8.00800000000001 44,8.45599999999999 44,9.00800000000001 C44,9.00800000000001 44,27.121 44,27.121 C44,34.874 40.318,42.308 34.151,47.005 ZM42,9.995 C30.755,9.69800000000001 24.133,4.44399999999999 22,2.43199999999999 C19.867,4.44399999999999 13.245,9.69800000000001 2,9.995 C2,9.995 2,27.121 2,27.121 C2,34.254 5.387,41.092 11.061,45.415 C11.061,45.415 22,53.749 22,53.749 C22,53.749 32.939,45.415 32.939,45.415 C38.613,41.092 42,34.254 42,27.121 C42,27.121 42,9.995 42,9.995 ZM33.919,41.883 C33.912,41.891 33.909,41.901 33.902,41.909 C33.895,41.915 33.886,41.917 33.879,41.924 C33.208,42.601 32.493,43.241 31.727,43.825 C31.727,43.825 22.606,50.773 22.606,50.773 C22.563,50.806 22.514,50.821 22.467,50.846 C22.429,50.867 22.395,50.89 22.354,50.906 C22.24,50.95 22.121,50.978 22,50.978 C21.879,50.978 21.76,50.95 21.646,50.906 C21.605,50.89 21.571,50.867 21.533,50.846 C21.487,50.822 21.437,50.806 21.394,50.773 C21.394,50.773 12.273,43.825 12.273,43.825 C7.09300000000002,39.878 4,33.634 4,27.121 C4,27.121 4,25.008 4,25.008 C4,25.008 4,25.007 4,25.007 C4,25.007 4,19.008 4,19.008 C4,19.008 4,19.008 4,19.008 C4,19.008 4,12.806 4,12.806 C4,12.294 4.38799999999998,11.864 4.89800000000002,11.812 C12.712,11.012 18.184,7.953 21.397,5.52699999999999 C21.44,5.495 21.489,5.47900000000001 21.535,5.45500000000001 C21.573,5.435 21.606,5.41200000000001 21.646,5.39699999999999 C21.759,5.35400000000001 21.875,5.327 21.994,5.327 C21.996,5.327 21.998,5.32499999999999 22,5.32499999999999 C22.003,5.32499999999999 22.005,5.327 22.007,5.327 C22.125,5.328 22.242,5.35400000000001 22.354,5.39699999999999 C22.394,5.41200000000001 22.428,5.435 22.465,5.45500000000001 C22.511,5.47999999999999 22.56,5.495 22.602,5.52699999999999 C25.816,7.953 31.288,11.012 39.102,11.812 C39.612,11.864 40,12.294 40,12.806 C40,12.806 40,27.121 40,27.121 C40,32.651 37.763,37.982 33.919,41.883 ZM36.647,34.068 C36.647,34.068 30.586,28.007 30.586,28.007 C30.586,28.007 27.414,28.007 27.414,28.007 C27.414,28.007 35.631,36.224 35.631,36.224 C36.013,35.526 36.354,34.808 36.647,34.068 ZM37.948,28.007 C37.948,28.007 33.414,28.007 33.414,28.007 C33.414,28.007 37.348,31.941 37.348,31.941 C37.687,30.661 37.884,29.344 37.948,28.007 ZM24.586,28.007 C24.586,28.007 23,28.007 23,28.007 C23,28.007 23,29.593 23,29.593 C23,29.593 33.154,39.746 33.154,39.746 C33.655,39.181 34.122,38.591 34.552,37.973 C34.552,37.973 24.586,28.007 24.586,28.007 ZM13.456,11.966 C13.456,11.966 6,19.422 6,19.422 C6,19.422 6,22.594 6,22.594 C6,22.594 19.288,9.30600000000001 19.288,9.30600000000001 C17.638,10.257 15.7,11.187 13.456,11.966 ZM8.58600000000001,26.008 C8.58600000000001,26.008 21,13.594 21,13.594 C21,13.594 21,10.422 21,10.422 C21,10.422 6,25.422 6,25.422 C6,25.422 6,26.008 6,26.008 C6,26.008 8.58600000000001,26.008 8.58600000000001,26.008 ZM21,19.594 C21,19.594 21,16.422 21,16.422 C21,16.422 11.414,26.008 11.414,26.008 C11.414,26.008 14.586,26.008 14.586,26.008 C14.586,26.008 21,19.594 21,19.594 ZM17.414,26.008 C17.414,26.008 21,26.008 21,26.008 C21,26.008 21,22.422 21,22.422 C21,22.422 17.414,26.008 17.414,26.008 ZM28.414,43.835 C28.414,43.835 23,38.421 23,38.421 C23,38.421 23,41.593 23,41.593 C23,41.593 26.613,45.206 26.613,45.206 C26.613,45.206 28.414,43.835 28.414,43.835 ZM23,44.421 C23,44.421 23,47.959 23,47.959 C23,47.959 25.008,46.429 25.008,46.429 C25.008,46.429 23,44.421 23,44.421 ZM31.751,41.172 C31.751,41.172 23,32.421 23,32.421 C23,32.421 23,35.593 23,35.593 C23,35.593 30.019,42.612 30.019,42.612 C30.019,42.612 30.515,42.234 30.515,42.234 C30.949,41.903 31.35,41.537 31.751,41.172 ZM13.485,42.234 C13.485,42.234 21,47.958 21,47.958 C21,47.958 21,30.008 21,30.008 C21,30.007 21,30.007 21,30.007 C21,30.007 21,28.007 21,28.007 C21,28.007 6.05200000000002,28.007 6.05200000000002,28.007 C6.31799999999998,33.574 9.03500000000003,38.843 13.485,42.234 ZM6,16.594 C6,16.594 9.53100000000001,13.063 9.53100000000001,13.063 C8.404,13.317 7.24200000000002,13.543 6,13.699 C6,13.699 6,16.594 6,16.594 ZM23,8.245 C23,8.245 23,14.008 23,14.008 C23,14.008 23,14.008 23,14.008 C23,14.008 23,20.007 23,20.007 C23,20.008 23,20.008 23,20.008 C23,20.008 23,26.008 23,26.008 C23,26.008 24.999,26.008 24.999,26.008 C25,26.008 25,26.008 25,26.008 C25,26.008 31,26.008 31,26.008 C31,26.008 31,26.008 31,26.008 C31,26.008 38,26.008 38,26.008 C38,26.008 38,13.699 38,13.699 C31.342,12.861 26.366,10.473 23,8.245 Z "/></svg>