<?xml version="1.0" encoding="utf-8"?><!DOCTYPE svg PUBLIC "-//W3C//DTD SVG 1.1//EN" "http://www.w3.org/Graphics/SVG/1.1/DTD/svg11.dtd"><svg version="1.1" baseProfile="full" xmlns="http://www.w3.org/2000/svg" xmlns:xlink="http://www.w3.org/1999/xlink" xmlns:ev="http://www.w3.org/2001/xml-events"   height="53px"   width="55px" ><path fill="#6F6F6F" d="M48.0050000000001,41.902 C48.0050000000001,41.902 48.0050000000001,51.004 48.0050000000001,51.004 C48.0050000000001,51.556 47.557,52.003 47.0050000000001,52.003 C46.453,52.003 46.0050000000001,51.556 46.0050000000001,51.004 C46.0050000000001,51.004 46.0050000000001,41.902 46.0050000000001,41.902 C42.6210000000001,41.412 40.0050000000001,38.521 40.0050000000001,35.004 C40.0050000000001,31.486 42.6210000000001,28.595 46.0050000000001,28.105 C46.0050000000001,28.105 46.0050000000001,1.00399999999999 46.0050000000001,1.00399999999999 C46.0050000000001,0.45099999999999 46.453,0.00399999999999 47.0050000000001,0.00399999999999 C47.557,0.00399999999999 48.0050000000001,0.45099999999999 48.0050000000001,1.00399999999999 C48.0050000000001,1.00399999999999 48.0050000000001,28.105 48.0050000000001,28.105 C51.3889999999999,28.595 54.0050000000001,31.486 54.0050000000001,35.004 C54.0050000000001,38.521 51.3889999999999,41.412 48.0050000000001,41.902 ZM47.0050000000001,30.004 C44.248,30.004 42.0050000000001,32.247 42.0050000000001,35.004 C42.0050000000001,37.76 44.248,40.003 47.0050000000001,40.003 C49.7619999999999,40.003 52.0050000000001,37.76 52.0050000000001,35.004 C52.0050000000001,32.247 49.7619999999999,30.004 47.0050000000001,30.004 ZM28.0050000000001,19.903 C28.0050000000001,19.903 28.0050000000001,51.004 28.0050000000001,51.004 C28.0050000000001,51.556 27.557,52.003 27.0050000000001,52.003 C26.453,52.003 26.0050000000001,51.556 26.0050000000001,51.004 C26.0050000000001,51.004 26.0050000000001,19.903 26.0050000000001,19.903 C22.6210000000001,19.412 20.0050000000001,16.521 20.0050000000001,13.004 C20.0050000000001,9.48599999999999 22.6210000000001,6.595 26.0050000000001,6.10499999999999 C26.0050000000001,6.10499999999999 26.0050000000001,1.00399999999999 26.0050000000001,1.00399999999999 C26.0050000000001,0.45099999999999 26.453,0.00399999999999 27.0050000000001,0.00399999999999 C27.557,0.00399999999999 28.0050000000001,0.45099999999999 28.0050000000001,1.00399999999999 C28.0050000000001,1.00399999999999 28.0050000000001,6.10499999999999 28.0050000000001,6.10499999999999 C31.3889999999999,6.595 34.0050000000001,9.48599999999999 34.0050000000001,13.004 C34.0050000000001,16.521 31.3889999999999,19.412 28.0050000000001,19.903 ZM27.0050000000001,8.00399999999999 C24.248,8.00399999999999 22.0050000000001,10.247 22.0050000000001,13.004 C22.0050000000001,15.76 24.248,18.004 27.0050000000001,18.004 C29.7619999999999,18.004 32.0050000000001,15.76 32.0050000000001,13.004 C32.0050000000001,10.247 29.7619999999999,8.00399999999999 27.0050000000001,8.00399999999999 ZM8.00500000000011,31.902 C8.00500000000011,31.902 8.00500000000011,51.004 8.00500000000011,51.004 C8.00500000000011,51.556 7.55700000000002,52.003 7.00399999999991,52.003 C6.452,52.003 6.00500000000011,51.556 6.00500000000011,51.004 C6.00500000000011,51.004 6.00500000000011,31.902 6.00500000000011,31.902 C2.62100000000009,31.412 0.00500000000011,28.521 0.00500000000011,25.004 C0.00500000000011,21.486 2.62100000000009,18.595 6.00500000000011,18.105 C6.00500000000011,18.105 6.00500000000011,1.00399999999999 6.00500000000011,1.00399999999999 C6.00500000000011,0.45099999999999 6.452,0.00399999999999 7.00399999999991,0.00399999999999 C7.55700000000002,0.00399999999999 8.00500000000011,0.45099999999999 8.00500000000011,1.00399999999999 C8.00500000000011,1.00399999999999 8.00500000000011,18.105 8.00500000000011,18.105 C11.3889999999999,18.595 14.0050000000001,21.486 14.0050000000001,25.004 C14.0050000000001,28.521 11.3889999999999,31.412 8.00500000000011,31.902 ZM7.00399999999991,20.004 C4.24800000000005,20.004 2.00500000000011,22.247 2.00500000000011,25.004 C2.00500000000011,27.76 4.24800000000005,30.004 7.00399999999991,30.004 C9.76099999999997,30.004 12.0050000000001,27.76 12.0050000000001,25.004 C12.0050000000001,22.247 9.76099999999997,20.004 7.00399999999991,20.004 Z "/></svg>