<?xml version="1.0" encoding="utf-8"?><!DOCTYPE svg PUBLIC "-//W3C//DTD SVG 1.1//EN" "http://www.w3.org/Graphics/SVG/1.1/DTD/svg11.dtd"><svg version="1.1" baseProfile="full" xmlns="http://www.w3.org/2000/svg" xmlns:xlink="http://www.w3.org/1999/xlink" xmlns:ev="http://www.w3.org/2001/xml-events"   height="53px"   width="53px" ><path fill="#6F6F6F" d="M52.2060000000001,6.97699999999998 C49.8589999999999,7.476 48.4749999999999,8.858 47.9769999999999,11.205 C47.8789999999999,11.667 47.471,11.997 46.9989999999998,11.997 C46.5259999999998,11.997 46.1179999999999,11.667 46.0210000000002,11.205 C45.5219999999999,8.858 44.1390000000001,7.476 41.7910000000002,6.97699999999998 C41.3299999999999,6.88 40.9989999999998,6.47199999999998 40.9989999999998,6 C40.9989999999998,5.52800000000002 41.3299999999999,5.12 41.7910000000002,5.02199999999999 C44.1390000000001,4.524 45.5219999999999,3.14100000000002 46.0210000000002,0.79500000000002 C46.1179999999999,0.33300000000003 46.5259999999998,0.00299999999999 46.9989999999998,0.00299999999999 C47.471,0.00299999999999 47.8789999999999,0.33300000000003 47.9769999999999,0.79500000000002 C48.4749999999999,3.14100000000002 49.8589999999999,4.524 52.2060000000001,5.02199999999999 C52.6680000000001,5.12 52.9989999999998,5.52800000000002 52.9989999999998,6 C52.9989999999998,6.47199999999998 52.6680000000001,6.88 52.2060000000001,6.97699999999998 ZM46.9989999999998,3.75200000000001 C46.4340000000002,4.68299999999999 45.681,5.43599999999998 44.75,6 C45.681,6.56400000000002 46.4340000000002,7.31700000000001 46.9989999999998,8.24799999999999 C47.5630000000001,7.31700000000001 48.317,6.56400000000002 49.248,6 C48.317,5.43599999999998 47.5630000000001,4.68299999999999 46.9989999999998,3.75200000000001 ZM42.2919999999999,16.428 C42.2919999999999,16.428 7.43299999999999,51.271 7.43299999999999,51.271 C6.86700000000019,51.838 6.11299999999983,52.149 5.3119999999999,52.149 C4.51000000000022,52.149 3.75700000000006,51.838 3.1909999999998,51.271 C3.1909999999998,51.271 1.70600000000013,49.788 1.70600000000013,49.788 C0.53699999999981,48.619 0.53699999999981,46.716 1.70600000000013,45.548 C1.70600000000013,45.548 36.5650000000001,10.705 36.5650000000001,10.705 C37.6979999999999,9.572 39.6750000000002,9.572 40.808,10.705 C40.808,10.705 42.2919999999999,12.188 42.2919999999999,12.188 C43.462,13.357 43.462,15.26 42.2919999999999,16.428 ZM3.11999999999989,46.961 C2.73100000000022,47.35 2.73100000000022,47.985 3.11999999999989,48.374 C3.11999999999989,48.374 4.60500000000002,49.858 4.60500000000002,49.858 C4.98300000000017,50.235 5.64100000000008,50.235 6.01899999999978,49.858 C6.01899999999978,49.858 33.5219999999999,22.367 33.5219999999999,22.367 C33.5219999999999,22.367 30.6239999999998,19.47 30.6239999999998,19.47 C30.6239999999998,19.47 3.11999999999989,46.961 3.11999999999989,46.961 ZM40.8780000000002,13.602 C40.8780000000002,13.602 39.393,12.118 39.393,12.118 C39.2040000000002,11.93 38.953,11.826 38.6860000000001,11.826 C38.4189999999999,11.826 38.1680000000001,11.93 37.98,12.118 C37.98,12.118 32.038,18.057 32.038,18.057 C32.038,18.057 34.9360000000001,20.954 34.9360000000001,20.954 C34.9360000000001,20.954 40.8780000000002,15.015 40.8780000000002,15.015 C41.2669999999998,14.626 41.2669999999998,13.991 40.8780000000002,13.602 ZM26.2069999999999,9.976 C22.1930000000002,10.827 19.8290000000002,13.19 18.9769999999999,17.202 C18.8789999999999,17.664 18.471,17.994 17.9989999999998,17.994 C17.527,17.994 17.1190000000001,17.664 17.0210000000002,17.202 C16.1700000000001,13.19 13.8049999999998,10.827 9.79199999999992,9.976 C9.32999999999993,9.87799999999999 8.9989999999998,9.47000000000003 8.9989999999998,8.99799999999999 C8.9989999999998,8.52600000000001 9.32999999999993,8.11900000000003 9.79199999999992,8.02100000000002 C13.8049999999998,7.17000000000002 16.1700000000001,4.80700000000002 17.0210000000002,0.79500000000002 C17.1190000000001,0.33300000000003 17.527,0.00299999999999 17.9989999999998,0.00299999999999 C18.471,0.00299999999999 18.8789999999999,0.33300000000003 18.9769999999999,0.79500000000002 C19.8290000000002,4.80700000000002 22.1930000000002,7.17000000000002 26.2069999999999,8.02100000000002 C26.6680000000001,8.11900000000003 26.9989999999998,8.52600000000001 26.9989999999998,8.99799999999999 C26.9989999999998,9.47000000000003 26.6680000000001,9.87799999999999 26.2069999999999,9.976 ZM17.9989999999998,4.16300000000001 C16.9630000000002,6.346 15.346,7.96199999999999 13.1619999999998,8.99799999999999 C15.346,10.035 16.9630000000002,11.65 17.9989999999998,13.834 C19.0360000000001,11.651 20.6529999999998,10.035 22.837,8.99799999999999 C20.6529999999998,7.96199999999999 19.0360000000001,6.346 17.9989999999998,4.16300000000001 ZM33.7910000000002,33.009 C37.25,32.275 39.2869999999998,30.239 40.0210000000002,26.783 C40.1190000000001,26.321 40.527,25.99 40.9989999999998,25.99 C41.471,25.99 41.8789999999999,26.321 41.9769999999999,26.783 C42.7109999999998,30.239 44.748,32.275 48.2060000000001,33.009 C48.6680000000001,33.107 48.9989999999998,33.515 48.9989999999998,33.987 C48.9989999999998,34.459 48.6680000000001,34.867 48.2060000000001,34.964 C44.748,35.698 42.7109999999998,37.734 41.9769999999999,41.191 C41.8789999999999,41.652 41.471,41.983 40.9989999999998,41.983 C40.527,41.983 40.1190000000001,41.652 40.0210000000002,41.191 C39.2869999999998,37.734 37.25,35.698 33.7910000000002,34.964 C33.3299999999999,34.867 32.9989999999998,34.459 32.9989999999998,33.987 C32.9989999999998,33.515 33.3299999999999,33.107 33.7910000000002,33.009 ZM40.9989999999998,37.932 C41.8820000000001,36.188 43.201,34.869 44.9459999999999,33.987 C43.201,33.104 41.8820000000001,31.786 40.9989999999998,30.042 C40.116,31.786 38.797,33.104 37.0520000000001,33.987 C38.797,34.869 40.116,36.188 40.9989999999998,37.932 Z "/></svg>