<?xml version="1.0" encoding="utf-8"?><!DOCTYPE svg PUBLIC "-//W3C//DTD SVG 1.1//EN" "http://www.w3.org/Graphics/SVG/1.1/DTD/svg11.dtd"><svg version="1.1" baseProfile="full" xmlns="http://www.w3.org/2000/svg" xmlns:xlink="http://www.w3.org/1999/xlink" xmlns:ev="http://www.w3.org/2001/xml-events"   height="53px"   width="57px" ><path fill="#6F6F6F" d="M56.9639999999999,1.78800000000001 C56.9780000000001,1.85200000000009 56.989,1.91300000000001 56.991,1.97900000000004 C56.992,2.02099999999996 56.9849999999999,2.0619999999999 56.979,2.10400000000004 C56.9770000000001,2.13000000000011 56.992,2.15300000000002 56.9870000000001,2.17900000000009 C56.9870000000001,2.17900000000009 48.9870000000001,46.1790000000001 48.9870000000001,46.1790000000001 C48.934,46.4690000000001 48.7560000000001,46.721 48.502,46.8679999999999 C48.348,46.9549999999999 48.1759999999999,47 48.0029999999999,47 C47.8879999999999,47 47.7729999999999,46.981 47.662,46.941 C47.662,46.941 34.5989999999999,42.2080000000001 34.5989999999999,42.2080000000001 C34.5989999999999,42.2080000000001 24.731,52.6859999999999 24.731,52.6859999999999 C24.7180000000001,52.6990000000001 24.703,52.7070000000001 24.6880000000001,52.7159999999999 C24.5799999999999,52.819 24.454,52.8989999999999 24.3119999999999,52.9459999999999 C24.3109999999999,52.9459999999999 24.3099999999999,52.9469999999999 24.308,52.9480000000001 C24.2739999999999,52.9590000000001 24.24,52.9590000000001 24.2059999999999,52.9639999999999 C24.1389999999999,52.979 24.0740000000001,53 24.0039999999999,53 C24.0039999999999,53 24.0029999999999,53 24.0029999999999,53 C24.0029999999999,53 24.0029999999999,53 24.0029999999999,53 C24.002,53 24.002,53 24.002,53 C23.999,53 23.9960000000001,52.999 23.9929999999999,52.999 C23.991,53 23.989,53 23.9870000000001,53 C23.982,53 23.9780000000001,52.998 23.973,52.998 C23.925,52.9960000000001 23.877,52.9939999999999 23.829,52.9849999999999 C23.8,52.98 23.779,52.962 23.751,52.954 C23.7159999999999,52.9449999999999 23.6780000000001,52.9459999999999 23.644,52.933 C23.6389999999999,52.932 23.635,52.9290000000001 23.6310000000001,52.9269999999999 C23.6010000000001,52.915 23.578,52.8900000000001 23.55,52.875 C23.4929999999999,52.846 23.442,52.8140000000001 23.393,52.7760000000001 C23.3699999999999,52.758 23.3409999999999,52.749 23.319,52.729 C23.319,52.729 23.318,52.7280000000001 23.317,52.7280000000001 C23.317,52.7270000000001 23.316,52.7260000000001 23.316,52.7249999999999 C23.2950000000001,52.7059999999999 23.287,52.675 23.2670000000001,52.655 C23.212,52.5920000000001 23.1679999999999,52.5260000000001 23.1289999999999,52.452 C23.1030000000001,52.4059999999999 23.058,52.375 23.04,52.3219999999999 C23.04,52.3219999999999 17.6769999999999,36.511 17.6769999999999,36.511 C17.6769999999999,36.511 1.67399999999998,30.9449999999999 1.67399999999998,30.9449999999999 C1.29700000000003,30.8140000000001 1.03399999999999,30.47 1.005,30.0719999999999 C0.976,29.674 1.18799999999999,29.296 1.54200000000003,29.1130000000001 C1.54200000000003,29.1130000000001 55.5429999999999,1.11300000000006 55.5429999999999,1.11300000000006 C55.8820000000001,0.9369999999999 56.2909999999999,0.971 56.597,1.19599999999991 C56.6030000000001,1.20000000000005 56.604,1.20800000000008 56.6099999999999,1.21299999999997 C56.6189999999999,1.2170000000001 56.6279999999999,1.22000000000003 56.636,1.22600000000011 C56.6569999999999,1.24399999999991 56.6669999999999,1.26900000000001 56.6859999999999,1.28800000000001 C56.7049999999999,1.30500000000006 56.729,1.3130000000001 56.7470000000001,1.33200000000011 C56.7739999999999,1.36300000000006 56.7840000000001,1.40200000000004 56.807,1.43499999999995 C56.8399999999999,1.48199999999997 56.8679999999999,1.52999999999997 56.8920000000001,1.57999999999993 C56.913,1.62200000000007 56.9259999999999,1.66200000000003 56.9400000000001,1.70800000000008 C56.9480000000001,1.73399999999992 56.9580000000001,1.75999999999999 56.9639999999999,1.78800000000001 ZM54.326,5.63400000000001 C54.326,5.63400000000001 28.107,37.7280000000001 28.107,37.7280000000001 C28.107,37.7280000000001 34.6679999999999,40.105 34.6679999999999,40.105 C34.6700000000001,40.106 34.671,40.106 34.673,40.107 C34.673,40.107 47.231,44.6569999999999 47.231,44.6569999999999 C47.231,44.6569999999999 54.326,5.63400000000001 54.326,5.63400000000001 ZM32.5509999999999,41.4659999999999 C32.5509999999999,41.4659999999999 27.2180000000001,39.5340000000001 27.2180000000001,39.5340000000001 C27.2180000000001,39.5340000000001 25.569,48.8789999999999 25.569,48.8789999999999 C25.569,48.8789999999999 32.5509999999999,41.4659999999999 32.5509999999999,41.4659999999999 ZM23.691,48.0129999999999 C23.691,48.0129999999999 25.4549999999999,38.0139999999999 25.4549999999999,38.0139999999999 C25.4580000000001,37.9949999999999 25.471,37.982 25.4749999999999,37.963 C25.4770000000001,37.953 25.4839999999999,37.944 25.4870000000001,37.933 C25.4939999999999,37.904 25.489,37.875 25.5,37.847 C25.52,37.7919999999999 25.559,37.752 25.588,37.703 C25.604,37.6690000000001 25.6179999999999,37.633 25.6410000000001,37.6030000000001 C25.6510000000001,37.588 25.654,37.5699999999999 25.6659999999999,37.5550000000001 C25.6659999999999,37.5550000000001 47.0170000000001,11.4200000000001 47.0170000000001,11.4200000000001 C47.0170000000001,11.4200000000001 19.627,36.03 19.627,36.03 C19.627,36.03 23.691,48.0129999999999 23.691,48.0129999999999 ZM18.2380000000001,34.588 C18.2380000000001,34.588 49.501,6.49800000000005 49.501,6.49800000000005 C49.501,6.49800000000005 4.52500000000009,29.819 4.52500000000009,29.819 C4.52500000000009,29.819 18.2380000000001,34.588 18.2380000000001,34.588 Z "/></svg>