<?xml version="1.0" encoding="iso-8859-1"?>
<!-- Generator: Adobe Illustrator 18.0.0, SVG Export Plug-In . SVG Version: 6.00 Build 0)  -->
<!DOCTYPE svg PUBLIC "-//W3C//DTD SVG 1.1//EN" "http://www.w3.org/Graphics/SVG/1.1/DTD/svg11.dtd">
<svg xmlns="http://www.w3.org/2000/svg" xmlns:xlink="http://www.w3.org/1999/xlink" version="1.1" id="Capa_1" x="0px" y="0px" viewBox="0 0 298.191 298.191" style="enable-background:new 0 0 298.191 298.191;" xml:space="preserve" width="55px" height="53px">
<g>
	<path d="M149.104,0C92.909,0,47.191,45.719,47.191,101.914c0,22.992,7.538,44.721,21.802,62.834   c2.818,3.576,5.826,7.074,9.011,10.779l0.565,0.658c10.483,12.16,22.365,25.943,26.868,42.477   c0.348,1.275,1.404,5.154,1.275,16.887c0,0.021,0,0.041,0,0.061v8.441c0,3.039,2.464,5.504,5.503,5.504h73.166   c3.039,0,5.503-2.465,5.503-5.504v-8.482c-0.083-11.094,0.935-14.766,1.269-15.975c4.534-16.381,17.078-31.129,28.145-44.143   l0.067-0.078c3.153-3.701,6.131-7.195,8.818-10.609c14.273-18.1,21.817-39.834,21.817-62.85C251.001,45.719,205.29,0,149.104,0z    M220.538,157.953c-2.558,3.248-5.469,6.664-8.553,10.285l-0.071,0.082c-11.805,13.881-25.185,29.613-30.367,48.338   c-0.757,2.73-1.752,7.67-1.668,18.951v2.939h-62.16v-2.908c0.127-11.736-0.821-16.783-1.662-19.871   c-5.158-18.938-17.904-33.725-29.145-46.766l-0.562-0.652c-3.106-3.613-6.04-7.025-8.711-10.414   c-12.719-16.152-19.441-35.525-19.441-56.023c0-50.127,40.78-90.908,90.907-90.908c50.117,0,90.891,40.781,90.891,90.908   C239.995,122.434,233.267,141.811,220.538,157.953z" fill="#6f6f6f"/>
	<path d="M185.381,254.756h-73.166c-3.039,0-5.503,2.463-5.503,5.502c0,3.041,2.464,5.504,5.503,5.504h73.166   c3.039,0,5.503-2.463,5.503-5.504C190.884,257.219,188.42,254.756,185.381,254.756z" fill="#6f6f6f"/>
	<path d="M185.381,270.971h-73.166c-3.039,0-5.503,2.465-5.503,5.504c0,3.039,2.464,5.502,5.503,5.502h73.166   c3.039,0,5.503-2.463,5.503-5.502C190.884,273.435,188.42,270.971,185.381,270.971z" fill="#6f6f6f"/>
	<path d="M167.09,287.185h-36.582c-3.039,0-5.503,2.463-5.503,5.504c0,3.039,2.464,5.502,5.503,5.502h36.582   c3.039,0,5.503-2.463,5.503-5.502C172.593,289.648,170.129,287.185,167.09,287.185z" fill="#6f6f6f"/>
	<path d="M174.426,84.072c0,3.039,2.463,5.502,5.502,5.502c3.04,0,5.504-2.463,5.504-5.502c0-15.084-13.4-27.619-30.834-29.828   V47.07c0-3.041-2.463-5.504-5.503-5.504c-3.039,0-5.503,2.463-5.503,5.504v7.174c-17.433,2.209-30.831,14.744-30.831,29.828   c0,15.076,13.398,27.605,30.831,29.813v38.211c-11.328-1.904-19.825-9.559-19.825-18.691c0-3.039-2.464-5.502-5.503-5.502   c-3.039,0-5.503,2.463-5.503,5.502c0,15.078,13.398,27.605,30.831,29.813v7.189c0,3.039,2.464,5.504,5.503,5.504   c3.04,0,5.503-2.465,5.503-5.504v-7.189c17.434-2.207,30.834-14.734,30.834-29.813c0-15.088-13.4-27.625-30.834-29.834V65.365   C165.927,67.273,174.426,74.934,174.426,84.072z M123.767,84.072c0-9.139,8.497-16.799,19.825-18.707v37.399   C132.264,100.857,123.767,93.203,123.767,84.072z M174.426,133.404c0,9.133-8.499,16.787-19.828,18.693v-37.406   C165.927,116.6,174.426,124.264,174.426,133.404z" fill="#6f6f6f"/>
</g>
<g>
</g>
<g>
</g>
<g>
</g>
<g>
</g>
<g>
</g>
<g>
</g>
<g>
</g>
<g>
</g>
<g>
</g>
<g>
</g>
<g>
</g>
<g>
</g>
<g>
</g>
<g>
</g>
<g>
</g>
</svg>
