<?xml version="1.0" encoding="utf-8"?><!DOCTYPE svg PUBLIC "-//W3C//DTD SVG 1.1//EN" "http://www.w3.org/Graphics/SVG/1.1/DTD/svg11.dtd"><svg version="1.1" baseProfile="full" xmlns="http://www.w3.org/2000/svg" xmlns:xlink="http://www.w3.org/1999/xlink" xmlns:ev="http://www.w3.org/2001/xml-events"   height="53px"   width="61px" ><path fill="#6F6F6F" d="M53.821,17.956 C54.806,18.567 55.702,19.302 56.49,20.145 C56.579,20.24 56.6660000000001,20.336 56.753,20.434 C57.125,20.8579999999999 57.479,21.297 57.795,21.7670000000001 C57.799,21.774 57.803,21.7809999999999 57.807,21.788 C58.1180000000001,22.252 58.39,22.7430000000001 58.64,23.247 C58.693,23.354 58.746,23.462 58.796,23.571 C59.272,24.599 59.614,25.697 59.807,26.848 C59.83,26.9829999999999 59.851,27.117 59.869,27.253 C59.947,27.827 60.001,28.408 60.001,29.002 C60.001,36.171 54.169,42.002 47.001,42.002 C47.001,42.002 46.001,42.002 46.001,42.002 C45.448,42.002 45.001,41.554 45.001,41.002 C45.001,40.45 45.448,40.002 46.001,40.002 C46.001,40.002 47.001,40.002 47.001,40.002 C53.066,40.002 58.001,35.068 58.001,29.002 C58.001,28.475 57.951,27.958 57.878,27.447 C57.862,27.3390000000001 57.847,27.232 57.828,27.125 C57.741,26.621 57.627,26.125 57.472,25.644 C57.46,25.6079999999999 57.4450000000001,25.574 57.433,25.538 C57.28,25.078 57.092,24.6319999999999 56.881,24.199 C56.845,24.125 56.811,24.049 56.774,23.976 C56.544,23.532 56.2859999999999,23.104 55.999,22.6950000000001 C55.952,22.629 55.902,22.566 55.854,22.501 C55.574,22.122 55.273,21.758 54.947,21.417 C54.913,21.381 54.8819999999999,21.343 54.847,21.307 C54.491,20.944 54.105,20.609 53.699,20.297 C53.636,20.248 53.571,20.201 53.5069999999999,20.153 C52.634,19.5119999999999 51.6609999999999,18.9880000000001 50.6,18.62 C49.471,18.227 48.263,18.002 47.001,18.002 C46.448,18.002 46.001,17.5549999999999 46.001,17.002 C46.001,16.45 46.448,16.002 47.001,16.002 C48.027,16.002 49.021,16.134 49.98,16.36 C49.9829999999999,16.245 50.001,16.116 50.001,16.002 C50.001,8.28300000000002 43.72,2.00199999999995 36.001,2.00199999999995 C30.434,2.00199999999995 25.365,5.38099999999997 23.1660000000001,10.4690000000001 C23.881,11.145 24.505,11.929 24.978,12.832 C25.234,13.321 25.045,13.926 24.556,14.182 C24.408,14.259 24.249,14.296 24.093,14.296 C23.732,14.296 23.385,14.101 23.206,13.76 C22.746,12.881 22.117,12.13 21.373,11.535 C21.365,11.529 21.354,11.529 21.347,11.522 C21.054,11.29 20.746,11.0890000000001 20.428,10.908 C20.36,10.87 20.29,10.837 20.221,10.801 C19.978,10.674 19.729,10.564 19.475,10.467 C19.3630000000001,10.425 19.252,10.384 19.139,10.348 C18.904,10.272 18.664,10.2140000000001 18.422,10.163 C18.308,10.14 18.196,10.11 18.08,10.092 C17.725,10.037 17.366,10.002 17,10.002 C13.364,10.002 10.402,12.799 10.067,16.349 C11.011,16.13 11.99,16.002 13,16.002 C13.553,16.002 14,16.45 14,17.002 C14,17.5549999999999 13.553,18.002 13,18.002 C11.72,18.002 10.495,18.234 9.351,18.638 C8.28599999999994,19.013 7.30799999999999,19.546 6.43399999999997,20.198 C6.38800000000003,20.232 6.34299999999996,20.265 6.298,20.3 C5.88,20.622 5.48400000000004,20.97 5.11800000000005,21.346 C5.09799999999996,21.367 5.08000000000004,21.389 5.05999999999995,21.41 C4.71000000000004,21.776 4.38699999999994,22.167 4.09000000000003,22.577 C4.06299999999999,22.615 4.03399999999999,22.651 4.00699999999995,22.689 C3.70899999999995,23.111 3.44399999999996,23.5549999999999 3.20799999999997,24.016 C3.17899999999997,24.073 3.15300000000002,24.131 3.125,24.188 C2.90099999999995,24.646 2.70299999999997,25.117 2.54300000000001,25.605 C2.53899999999999,25.6180000000001 2.53300000000002,25.63 2.529,25.643 C2.37300000000005,26.129 2.25900000000001,26.63 2.17100000000005,27.139 C2.15300000000002,27.242 2.13800000000003,27.346 2.12300000000005,27.451 C2.04999999999995,27.96 2,28.477 2,29.002 C2,35.068 6.93499999999995,40.002 13,40.002 C13,40.002 14,40.002 14,40.002 C14.553,40.002 15,40.45 15,41.002 C15,41.554 14.553,42.002 14,42.002 C14,42.002 13,42.002 13,42.002 C5.83199999999999,42.002 0,36.171 0,29.002 C0,28.408 0.05399999999997,27.827 0.13199999999995,27.254 C0.14999999999998,27.122 0.16999999999996,26.9930000000001 0.19200000000001,26.8630000000001 C0.38599999999997,25.699 0.73199999999997,24.59 1.21400000000006,23.552 C1.25400000000002,23.466 1.29499999999996,23.383 1.33600000000001,23.298 C1.85199999999998,22.249 2.50099999999998,21.2809999999999 3.26800000000003,20.413 C3.33199999999999,20.34 3.39800000000002,20.269 3.46400000000006,20.198 C4.26400000000001,19.332 5.17700000000002,18.577 6.18399999999997,17.954 C6.245,17.9160000000001 6.30499999999995,17.879 6.36599999999999,17.843 C6.89099999999996,17.53 7.43200000000002,17.2430000000001 8,17.005 C8,17.004 8,17.003 8,17.002 C8,12.04 12.038,8.00199999999995 17,8.00199999999995 C17.414,8.00199999999995 17.823,8.03200000000004 18.225,8.08600000000001 C18.331,8.101 18.432,8.13099999999997 18.537,8.149 C18.829,8.19899999999996 19.12,8.25099999999998 19.404,8.33000000000004 C19.576,8.37699999999995 19.74,8.44500000000005 19.908,8.50300000000004 C20.111,8.572 20.3150000000001,8.63300000000004 20.5119999999999,8.71699999999998 C20.783,8.83199999999999 21.0410000000001,8.971 21.298,9.11099999999999 C21.372,9.15099999999995 21.451,9.18100000000004 21.523,9.22400000000005 C24.135,3.65999999999997 29.802,0.00199999999995 36.001,0.00199999999995 C44.823,0.00199999999995 52.001,7.17999999999995 52.001,16.002 C52.001,16.326 51.99,16.654 51.967,16.9930000000001 C52.53,17.227 53.068,17.5069999999999 53.588,17.814 C53.6660000000001,17.86 53.7430000000001,17.908 53.821,17.956 ZM30.001,26.002 C37.169,26.002 43.001,31.8339999999999 43.001,39.002 C43.001,46.171 37.169,52.002 30.001,52.002 C22.832,52.002 17,46.171 17,39.002 C17,31.8339999999999 22.832,26.002 30.001,26.002 ZM30.001,50.002 C36.066,50.002 41.001,45.068 41.001,39.002 C41.001,32.937 36.066,28.002 30.001,28.002 C23.9349999999999,28.002 19,32.937 19,39.002 C19,45.068 23.9349999999999,50.002 30.001,50.002 ZM25.691,39.279 C25.691,39.279 28.518,41.977 28.518,41.977 C28.518,41.977 34.183,33.927 34.183,33.927 C34.5,33.475 35.124,33.367 35.576,33.684 C36.028,34.002 36.136,34.626 35.819,35.078 C35.819,35.078 29.485,44.078 29.485,44.078 C29.317,44.316 29.054,44.4690000000001 28.765,44.497 C28.732,44.501 28.699,44.502 28.667,44.502 C28.4109999999999,44.502 28.164,44.404 27.977,44.225 C27.977,44.225 24.3099999999999,40.725 24.3099999999999,40.725 C23.9109999999999,40.3440000000001 23.896,39.711 24.277,39.312 C24.658,38.91 25.2910000000001,38.897 25.691,39.279 Z "/></svg>